<?xml version="1.0" encoding="utf-8" ?><svg xmlns="http://www.w3.org/2000/svg" xmlns:xlink="http://www.w3.org/1999/xlink" width="1024" height="1024" viewBox="0 0 1024 1024"><path d="M0 0L1024 0L1024 1024L0 1024L0 0Z"/><path fill="#FEFEF0" d="M286.425 166.702C290.252 166.179 298.904 165.424 302.021 167.889C303.075 170.289 302.709 196.856 302.667 201.134C301.795 289.191 303.595 377.46 302.596 465.49C282.805 465.684 263.013 465.725 243.221 465.612C249.021 440.928 254.029 416.017 260.107 391.425C260.429 386.346 267.779 372.365 258.488 371.797C252.035 371.402 251.361 384.356 250.191 389.463L242.224 424.623L217.079 534.25C207.868 571.653 199.036 609.148 190.587 646.731C188.913 654.027 181.354 673.695 187.069 678.375C195.012 680.129 196.547 663.875 197.917 658.086C200.608 646.75 203.229 635.398 205.782 624.03C211.45 599.34 217.859 575.101 223.47 550.257C229.721 546.083 239.642 537.59 245.948 532.705L302.222 488.882C303.745 509.885 302.455 534.442 302.253 555.681C302.227 558.496 298.814 570.534 297.924 574.305C287.226 617.471 276.03 660.512 264.338 703.42L237.233 807.991L196.079 808.141C166.823 808.187 146.887 809.216 122.325 789.735C105.749 776.455 95.1053 757.152 92.722 736.046C91.8108 727.886 92.1142 718.766 93.8417 710.739C97.8484 692.119 102.875 673.67 107.172 655.08C121.471 594.257 136.141 533.522 151.18 472.878L190.453 309.406L201.671 261.539C206.893 238.654 210.07 215.318 225.235 196.672C241.709 176.418 261.171 169.356 286.425 166.702Z"/><path fill="#FEFEF0" d="M769.744 435.413C771.515 435.936 779.23 440.995 781.223 442.201C804.894 456.519 827.583 472.405 850.991 487.147C855.822 490.189 860.83 493.355 865.507 496.619C868.214 498.495 870.765 500.587 873.135 502.875C886.286 515.498 888.221 534.038 892.389 551.217L907.88 616.849L922.851 680.712C925.542 692.073 931.25 712.345 931.351 723.102C931.562 745 923.141 766.1 907.912 781.837C883.266 806.995 859.39 807.602 827.293 807.36C813.884 807.219 800.474 807.199 787.064 807.301C784.125 794.913 780.405 782.322 776.997 770.003L762.669 717.974C756.441 695.658 750.633 672.337 744.724 649.877L727.45 582.472C725.588 575.32 722.174 565.418 720.819 558.669C720.11 555.138 720.407 541.511 720.411 537.295L720.477 500.566C726.356 503.767 733.682 509.027 739.316 512.81L772.313 535.03C778.736 539.299 796.655 549.467 801.169 553.926C802.871 558.653 806.077 574.095 807.318 579.431L821.832 642.566C824.223 653.373 826.223 664.444 829.208 675.112C831.226 682.322 837.729 680.179 838.218 674.019C838.388 671.87 836.523 666.135 835.981 663.629C833.64 652.696 831.154 641.794 828.523 630.927C822.109 603.495 816.032 574.261 809.28 547.164C779.844 527.479 750.39 510.432 720.972 489.865C720.733 483.352 720.608 476.835 720.596 470.317C734.874 458.929 754.427 445.446 769.744 435.413Z"/><path fill="#FEFEF0" d="M312.351 166.113C324.96 165.552 338.502 166.148 351.095 165.894C380.731 165.294 405.557 164.24 429.177 186.012C449.255 204.52 454.939 223.841 456.082 250.12C430.299 279.859 427.638 315.391 449.607 348.22C443.376 363.443 435.068 380.217 428.286 395.428L390.701 480.144C380.638 502.57 369.67 525.999 360.214 548.625C350.867 569.064 341.876 590.59 332.778 611.211L311.512 658.219L311.404 326.955L311.217 232.988C311.186 224.593 310.475 168.869 312.351 166.113Z"/><path d="M375.38 317.013C378.779 316.873 382.867 317.776 382.996 322.038C383.397 335.297 383.013 348.654 383.035 361.926C383.039 364.412 381.557 365.772 379.793 367.231C373.514 367.799 372.589 364.339 372.698 359.072C372.966 346.252 371.957 333.104 373.213 320.373C373.33 319.185 374.588 317.828 375.38 317.013Z"/><path fill="#FEFEF0" d="M647.823 165.213C662.876 164.642 678.362 165.638 693.474 165.13C697.022 165.011 705.002 164.901 707.96 166.635C709.079 171.931 708.862 180.181 708.875 185.795L708.877 210.599L708.906 295.727C708.388 415.555 708.574 535.384 709.464 655.209C699.537 634.748 689.957 610.429 680.606 589.25L608.171 424.748C597.352 400.18 583.913 373.468 574.244 348.728C582.073 336.877 586.004 328.811 588.052 314.503C590.724 296.837 586.975 278.799 577.486 263.661C574.394 258.744 569.708 253.141 566.126 248.343C567.461 226.78 572.79 210.104 587.392 193.765C603.202 176.074 624.226 166.519 647.823 165.213Z"/><path d="M642.506 314.51C644.216 314.362 648.79 314.433 648.987 316.871C650.17 331.516 649.295 346.538 649.513 361.254C649.558 364.28 648.834 364.808 646.762 366.746C639.764 367.683 639.904 363.65 639.86 358.126C639.783 348.735 639.832 339.311 639.834 329.922C639.835 325.755 639.652 321.448 640.241 317.361C640.327 316.766 642.051 314.984 642.506 314.51Z"/><path fill="#FEFEF0" d="M793.758 166.616C820.882 165.949 847.459 177.295 864.072 199.111C871.716 209.33 877.117 221.049 879.92 233.5C881.041 238.62 881.723 243.826 881.959 249.062C882.666 262.663 881.754 278.88 881.969 292.831C882.147 304.421 882.447 318.463 881.636 329.731C881.2 335.796 875.922 347.633 871.492 351.993C857.925 365.346 838.759 376.136 823.279 387.206C789.29 411.512 754.215 434.576 720.585 459.283L720.587 404.25L720.53 367.027C727.676 363.362 803.984 308.857 805.768 305.164C806.337 303.987 806.326 303.024 805.924 301.798C804.002 299.504 802.026 298.401 799.154 300.27C795.716 302.507 792.438 305.047 789.13 307.479C782.158 312.584 775.215 317.729 768.302 322.912C752.854 334.38 736.258 345.982 720.475 357.051L720.558 216.129C734.172 206.605 747.858 197.185 761.616 187.87C771.66 180.978 783.336 172.639 793.758 166.616Z"/><path fill="#FEFEF0" d="M568.543 505.31C571.006 508.247 577.511 524.675 579.383 528.999C593.929 562.611 608.613 596.401 623.703 629.765C621.456 643.701 619.323 657.656 617.304 671.627L625.638 671.716C627.145 662.575 627.827 653.118 629.322 643.878C632.035 648.087 635.333 656.688 637.405 661.589C642.362 673.312 646.59 683.947 652.522 695.221C639.638 700.922 641.739 712.931 645.609 723.973C653.608 746.791 655.032 769.104 686.341 756.39C683.737 769.087 680.823 781.718 677.602 794.273L674.221 806.974C658.984 806.948 643.746 807.021 628.51 807.193C615.819 807.346 602.46 808.076 590.008 805.924C553.534 799.622 525.212 765.724 525.792 728.649C526.072 710.808 530.987 692.534 534.72 675.035L544.887 625.957C549.963 601.478 554.782 576.946 559.344 552.366C562.366 536.623 565.635 521.101 568.543 505.31Z"/><path fill="#FEFEF0" d="M451.258 513.878C454.278 517.017 472.222 607.945 475.29 618.831C482.628 644.875 488.318 677.923 494.603 703.813C506.701 753.646 477.867 799.417 426.454 806.46C416.158 807.942 404.2 807.148 393.193 807.168C377.724 807.298 362.255 807.213 346.788 806.912L345.353 802.115C341.751 789.146 337.989 776.222 334.068 763.346C334.853 761.364 336.182 758.847 337.143 756.881C364.65 765.761 366.377 748.926 374.475 728.618C379.55 715.894 385.069 705.474 371.363 695.19C377.559 679.483 386.288 660.948 393.397 645.617C393.798 653.596 395.184 663.698 396.08 671.793C398.814 671.876 401.753 671.763 404.503 671.713C403.689 666.037 400.178 632.533 401.16 628.289C402.289 623.411 414.207 597.342 417.275 590.36L441.971 534.462C445.059 527.643 447.895 520.516 451.258 513.878Z"/><path fill="#FEFEF0" d="M510.32 161.206C525.667 160.209 539.048 167.186 544.048 182.691C546.855 188.862 543.674 241.497 545.913 243.49C557.032 253.391 564.931 257.848 572.117 270.839C585.656 295.314 582.884 327.395 563.404 347.017C576.974 375.8 590.141 404.769 602.903 433.919C608.095 445.792 613.146 458.162 618.467 469.899C633.984 503.586 649.137 537.439 663.926 571.452C679.432 605.769 694.319 640.363 708.579 675.216C704.774 676.305 703.166 676.959 699.541 678.596C695.88 670.926 692.243 661.454 688.729 653.503L654.66 575.452L598.249 449.14L568.474 382.278C564.684 373.876 555.528 355.118 553.024 347.171C555.314 344.814 558.156 342.069 560.069 339.431C577.288 315.684 574.822 282.446 553.141 262.309C547.501 257.071 541.591 253.947 535.028 250.133C535.891 230.019 535.81 207.395 535.049 187.165C534.684 177.478 523.426 172.986 514.625 172.234C514.162 172.201 513.698 172.176 513.234 172.159C499.382 171.66 488.067 177.954 488.842 193.241C489.057 197.486 488.968 202.693 488.965 207.022L488.795 249.717C469.483 261.771 456.163 272.212 453.198 296.621C450.836 316.064 458.811 331.567 470.536 346.488C464.546 362.835 456.912 377.011 449.944 392.519C441.87 410.487 433.599 428.614 425.639 446.598C390.606 523.746 356.377 601.255 322.957 679.115C320.108 677.737 317.268 676.342 314.436 674.929C317.28 669.363 320.091 661.853 322.737 655.888C328.884 642.273 334.916 628.606 340.833 614.889L376.034 534.764C403.229 472.07 432.262 409.769 459.855 347.203C450.454 333.609 446.596 329.892 444.344 311.994C441.801 291.792 448.213 270.437 462.755 255.948C467.811 250.909 474.065 248.481 478.451 242.537C479.07 223.693 477.309 201.834 479.096 183.178C480.397 169.601 497.445 162.153 510.32 161.206Z"/><path fill="#FEFEF0" d="M508.636 354.777C510.884 354.652 513.236 354.467 515.48 354.436C523.274 354.327 524.545 354.274 524.593 362.25C524.678 376.313 524.581 390.297 524.543 404.322L524.552 479.711C523.12 480.681 522.128 481.131 521.364 482.67L521.773 483.228L524.002 483.536C525.309 484.982 524.543 503.839 524.527 507.412L524.192 610.173L524.223 642.002C524.215 647.785 523.968 654.143 524.295 659.848C525.169 660.751 527.097 662.874 527.267 664.042C528.808 674.633 518.298 696.733 513.182 705.307C512.234 706.642 512.825 706.363 511.592 706.679C505.824 699.649 496.243 672.794 496.79 664.345C497.593 662.431 498.867 661.796 500.6 660.519C501.103 651.776 500.538 640.466 500.516 631.501L500.461 534.295C500.46 528.884 500.072 486.259 501.071 484.434C501.963 484.347 502.572 484.242 503.454 484.077C504.15 482.29 504.005 483.218 503.695 481.168C502.825 480.566 502.041 480.161 501.075 479.733C500.372 478.109 500.665 470.074 500.675 467.74L500.77 442.367L500.951 390.847C500.973 385.244 500.415 358.659 502.425 355.594C504.129 354.569 506.558 354.81 508.636 354.777Z"/><path d="M511.256 377.872C513.503 378.015 514.257 378.057 515.861 379.507C517.717 383.239 517.096 441.096 517.094 449.69L517.056 605.821L516.923 655.803C516.927 658.437 517.856 667.005 517.747 667.989C517.194 672.947 513.935 681.88 512.294 686.853L511.915 687.231C510.322 685.846 507.809 673.648 507.802 670.94C507.784 664.584 508.171 657.977 508.29 651.59C508.46 639.351 508.528 627.11 508.495 614.87L508.799 467.943C508.864 448.029 508.809 428.114 508.636 408.2C508.58 399.594 508.425 389.817 508.765 381.149C508.823 379.661 510.152 378.705 511.256 377.872Z"/><path fill="#FEFEF0" d="M726.563 676.611C729.422 676.42 733.222 676.576 736.039 677.99C745.909 682.947 746.895 698.416 750.636 707.62C752.269 711.636 752.906 717.679 751.28 721.331C750.546 722.98 748.357 725.688 746.578 726.399C740.232 728.919 733.716 731.055 727.291 733.419L677.105 751.524C662.637 755.876 659.512 739.413 656.094 728.923C654.166 723.006 648.974 709.324 653.21 703.05C653.84 702.117 658.857 699.51 660.294 699.01C677.698 692.944 695.182 687.025 712.606 681.012C717.113 679.458 721.904 677.403 726.563 676.611Z"/><path d="M723.936 683.604C731.237 683.161 733.991 687.202 735.722 693.75C737.776 701.525 743.919 712.246 741.945 720.151C738.155 724.45 717.65 730.141 710.94 732.47C700.203 736.197 687.973 741.498 677.117 743.928C671.029 745.05 669.361 743.117 667.645 737.419C665.171 729.207 662.57 721.199 659.735 713.079C658.431 708.788 660.211 705.619 664.374 704.215C680.633 698.731 696.692 692.862 712.85 687.102C716.58 685.772 720.062 684.457 723.936 683.604Z"/><path fill="#FEFEF0" d="M723.24 703.141C730.36 705.987 742.597 708.966 735.952 719.241C728.611 723.609 724.572 716.324 723.147 709.981C722.706 708.019 723.065 705.172 723.24 703.141Z"/><path fill="#FEFEFC" d="M720.847 689.111C721.42 689.018 721.995 688.944 722.572 688.889C729.344 688.292 736.83 696.824 732.265 701.616C730.319 702.277 729.181 701.783 727.067 701.344C721.076 698.44 721.856 695.18 711.969 692.29C714.877 691.143 717.891 690.139 720.847 689.111Z"/><path fill="#FEFEE4" d="M709.771 698.489C710.18 698.46 710.684 698.612 711.121 698.702C711.977 700.49 711.695 702.99 711.667 705.056C707.623 705.851 699.202 709.099 694.689 710.497C687.268 702.334 704.129 700.293 709.771 698.489Z"/><path fill="#FEFEF0" d="M292.757 675.627C294.732 675.453 297.378 675.215 299.251 675.961C317.065 683.058 334.95 689.856 352.836 696.795C357.501 698.604 368.34 702.284 370.611 706.966C374.126 714.21 367.83 723.477 365.138 730.045C361.241 739.054 361.24 746.951 351.116 751.052C349.398 751.505 345.074 751.998 343.431 751.365C322.629 743.326 301.751 734.572 280.897 726.695C267.561 720.771 273.11 707.105 276.594 697.121C280.74 685.24 279.853 679.813 292.757 675.627Z"/><path d="M295.148 682.518C305.184 681.962 333.803 697.761 344.533 701.224C347.917 702.316 359.587 706.703 361.616 709.29C363.247 714.628 359.571 720.74 357.617 725.802C354.939 732.74 354.615 740.259 347.917 744.412C340.389 745.514 318.36 734.624 310.256 731.453C301.979 728.213 287.401 723.798 281.22 717.51C278.718 714.965 283.563 704.57 284.569 701.532C287.203 693.022 286.715 687.694 295.148 682.518Z"/><path fill="#FEFEF0" d="M299.09 688.552C303.261 689.309 314.056 693.396 316.504 696.8C316.597 699.765 314.35 700.77 311.79 701.252C316.479 704.133 328.141 704.699 328.123 710.302C326.253 713.349 324.741 712.892 321.721 711.885C316.958 710.297 312.089 709.038 307.823 706.32C308.376 703.839 309.347 703.547 309.776 700.75C308.964 699.742 302.21 697.312 300.076 696.312C298.477 699.84 297.64 702.702 296.38 706.322C295.116 709.954 294.621 715.13 290.008 714.661C285.728 710.453 291.739 697.403 293.837 692.601C294.909 690.147 296.62 689.206 299.09 688.552Z"/><path fill="#FEFEF0" d="M488.824 380.368C489.547 385.962 487.516 393.143 489.381 398.261C489.753 399.28 490.746 398.552 491.874 399.985C489.02 408.698 480.417 426.207 476.323 435.698C462.457 468.198 448.024 500.453 433.031 532.448C418.118 564.662 403.407 599.914 389.303 632.624L362.728 692.836L357.812 691.338C356.492 690.94 354.352 690.509 352.945 690.176C358.005 679.381 362.34 668.301 367.107 657.33L397.692 587.307L488.824 380.368Z"/><path fill="#FEFEF0" d="M535.041 384.405C536.343 386.389 537.552 389.295 538.59 391.48C549.866 415.219 559.298 439.768 570.005 463.752C595.251 519.655 620.023 575.771 644.321 632.093L659.237 666.498C661.81 672.323 666.751 682.787 668.396 688.472C667.778 689.84 667.77 689.451 665.862 690.195L659.914 692.727C656.043 684.591 651.553 672.695 647.74 663.944L618.858 598.048L564.678 476.317C558.343 461.943 552.053 447.596 545.583 433.277C541.48 424.195 538.12 414.392 533.591 405.486C534.726 398.801 534.556 391.358 535.041 384.405Z"/><path fill="#FEFEE4" d="M284.264 734.941C288.011 735.921 290.699 736.841 294.356 738.162C287.085 755.58 278.32 775.975 272.053 793.606C282.555 806.289 277.93 821.194 261.256 823.292C258.868 832.703 261.541 843.199 263.263 852.605C273.102 848.178 281.057 841.556 285.323 831.5C296.918 804.164 308.05 776.382 319.283 748.894C322.76 750.324 326.06 751.94 329.45 753.563L325.214 763.872C320.236 776.353 314.79 788.731 309.659 801.164C298.899 827.239 291.665 860.728 257.464 863.749C249.938 848.203 250.2 832.312 251.773 815.865C259.66 817.857 268.826 818.052 272.446 809.02C273.706 805.862 273.656 802.332 272.305 799.211C270.126 794.211 266.474 792.736 261.868 791.042C269.817 772.538 277.285 753.832 284.264 734.941Z"/><path fill="#FEFEF0" d="M739.403 737.075C740.718 738.466 743.029 744.354 743.911 746.423C747.164 754.006 750.356 761.616 753.487 769.25C754.874 772.731 756.775 780.214 759.594 782.692C760.544 783.526 760.776 783.524 761.724 784.718C761.779 785.148 762.108 786.64 761.799 786.884C752.722 794.045 738.864 807.881 757.906 814.66C762.532 813.767 765.313 813.185 769.766 811.761C774.076 829.763 774.556 846.972 766.248 863.779C761.623 862.555 757.073 861.064 752.621 859.313C736.007 852.608 732.003 845.249 725.248 829.235C720.905 818.938 716.681 808.359 712.417 798.015C708.245 788.113 704.021 778.232 699.746 768.373C697.553 763.589 695.414 758.781 693.33 753.948L702.105 750.563C709.202 764.961 715.094 780.972 721.897 795.612C728.381 809.562 732.71 826.07 741.602 838.793C745.063 843.744 755.102 849.338 760.241 852.059C761.63 839.46 761.804 832.654 761.472 820.057C755.911 820.097 751.553 818.465 747.931 814.062C745.132 810.599 743.838 806.16 744.337 801.736C744.931 796.52 747.399 793.891 751.186 790.851C745.591 774.392 736.124 758.127 730.538 740.281C733.726 738.907 736.087 738.132 739.403 737.075Z"/><path fill="#FEFEF0" d="M507.974 253.687C526.994 251.701 546.86 261.866 556.673 278.23C563.59 289.808 565.623 303.659 562.324 316.735C557.968 333.89 546.394 344.237 531.826 352.848C531.146 351.363 530.443 349.44 529.824 347.89C542.11 341 552.198 335.072 557.332 321.286C561.411 310.295 560.946 298.132 556.039 287.485C550.493 275.679 541.671 268.198 529.515 263.845C514.558 260.017 505.176 260.468 490.782 265.603C494.308 266.526 498.269 267.481 501.009 269.901C517.631 284.585 495.692 308.457 478.839 294.792C474.029 290.891 473.428 284.509 473.199 278.65C466.556 290.338 463.615 301.552 466.101 314.944C466.558 317.407 469.548 326.85 467.82 328.438C467.659 328.351 467.499 328.263 467.338 328.175C455.445 314.359 460.003 284.801 470.101 272.98C481.754 259.338 493.269 255.481 507.974 253.687Z"/><path fill="#FEFEF0" d="M517.565 177.236C529.23 178.381 529.899 186.655 529.743 196.104C529.471 212.537 530.304 229.213 529.506 245.656C520.175 241.651 513.691 245.848 504.205 244.382C503.647 244.296 503.372 242.577 503.218 242.031L502.335 241.544C499.077 241.772 497.25 244.324 494.95 246.678C494.591 232.807 494.925 217.713 494.979 203.75C495.097 192.804 492.044 184.911 502.467 178.297L502.523 239.033C507.466 238.969 512.409 238.935 517.353 238.93L517.565 177.236Z"/><path fill="#FEFEF0" d="M547.293 310.858C548.016 314.593 546.408 320.001 544.959 323.636C537.115 343.316 511.865 347.427 494.196 339.728C486.871 336.536 482.576 331.12 479.889 323.415L478.435 317.431C498.041 348.202 533.058 344.233 547.293 310.858Z"/><path fill="#FEFEFC" d="M541.465 361.933L550.104 361.977C547.399 368.019 544.972 374.637 542.578 380.851L542.181 381.62C540.826 380.429 537.278 371.116 536.465 368.995L538.43 367.849C541.51 366.044 541.336 365.489 541.465 361.933Z"/><path fill="#FEFEF0" d="M476.25 337.845C476.733 337.865 478.042 337.837 478.437 338.117C484.742 342.581 490.505 345.588 497.613 348.676C497.899 350.195 497.541 350.066 496.507 351.823C492.889 355.312 478.287 342.427 476.25 337.845Z"/></svg>